<svg width="24" height="13" viewBox="0 0 24 13" fill="none" xmlns="http://www.w3.org/2000/svg">
<path d="M23.12 8.36566L19.25 11.856C19.157 11.9396 19.0464 12.006 18.9245 12.0514C18.8027 12.0967 18.672 12.12 18.54 12.12C18.4079 12.12 18.2772 12.0967 18.1554 12.0514C18.0335 12.006 17.9229 11.9396 17.83 11.856C17.7362 11.773 17.6618 11.6743 17.6111 11.5655C17.5603 11.4567 17.5342 11.34 17.5342 11.2222C17.5342 11.1043 17.5603 10.9877 17.6111 10.8789C17.6618 10.7701 17.7362 10.6714 17.83 10.5884L21.39 7.39266H0.999954C0.734737 7.39266 0.480383 7.29861 0.292847 7.1312C0.10531 6.9638 -4.57764e-05 6.73674 -4.57764e-05 6.5C-4.57764e-05 6.26325 0.10531 6.03619 0.292847 5.86879C0.480383 5.70138 0.734737 5.60733 0.999954 5.60733H21.45L17.83 2.3759C17.6527 2.20988 17.5538 1.98932 17.5538 1.75996C17.5538 1.5306 17.6527 1.31004 17.83 1.14402C17.9229 1.06035 18.0335 0.993945 18.1554 0.948626C18.2772 0.903307 18.4079 0.879974 18.54 0.879974C18.672 0.879974 18.8027 0.903307 18.9245 0.948626C19.0464 0.993945 19.157 1.06035 19.25 1.14402L23.12 4.58077C23.6818 5.0829 23.9973 5.76355 23.9973 6.47322C23.9973 7.18288 23.6818 7.86354 23.12 8.36566Z" fill="#7F5539"/>
</svg>
