<svg width="18" height="9" viewBox="0 0 18 9" fill="none" xmlns="http://www.w3.org/2000/svg">
<path d="M1.47276 9C1.75478 8.99975 2.02515 8.88752 2.22445 8.68798L7.66495 3.24747C7.82958 3.0828 8.02504 2.95217 8.24016 2.86304C8.45529 2.77392 8.68586 2.72805 8.91871 2.72805C9.15156 2.72805 9.38214 2.77392 9.59726 2.86304C9.81238 2.95217 10.0078 3.0828 10.1725 3.24747L15.6094 8.68089C15.81 8.87465 16.0787 8.98187 16.3576 8.97944C16.6365 8.97702 16.9033 8.86515 17.1006 8.66793C17.2978 8.47071 17.4096 8.20392 17.4121 7.92502C17.4145 7.64612 17.3073 7.37742 17.1135 7.17681L11.6808 1.74339C10.9488 1.01281 9.95682 0.602496 8.92261 0.602496C7.8884 0.602496 6.89643 1.01281 6.16442 1.74339L0.723909 7.1839C0.575262 7.33245 0.473947 7.5217 0.432751 7.72777C0.391552 7.93385 0.412319 8.1475 0.49243 8.34179C0.57254 8.53607 0.708405 8.70227 0.882875 8.81941C1.05735 8.93656 1.26261 8.9994 1.47276 9Z" fill="#4C240A"/>
</svg>
